<?xml version="1.0" encoding="UTF-8" standalone="no"?>
<svg
   id="_レイヤー_1"
   data-name="レイヤー_1"
   version="1.1"
   viewBox="0 0 1080 1080"
   sodipodi:docname="katari_k.svg"
   inkscape:version="1.4.2 (f4327f4, 2025-05-13)"
   xmlns:inkscape="http://www.inkscape.org/namespaces/inkscape"
   xmlns:sodipodi="http://sodipodi.sourceforge.net/DTD/sodipodi-0.dtd"
   xmlns="http://www.w3.org/2000/svg"
   xmlns:svg="http://www.w3.org/2000/svg">
  <sodipodi:namedview
     id="namedview16"
     pagecolor="#ffffff"
     bordercolor="#000000"
     borderopacity="0.25"
     inkscape:showpageshadow="2"
     inkscape:pageopacity="0.0"
     inkscape:pagecheckerboard="0"
     inkscape:deskcolor="#d1d1d1"
     inkscape:zoom="0.45"
     inkscape:cx="541.11111"
     inkscape:cy="540"
     inkscape:window-width="1280"
     inkscape:window-height="730"
     inkscape:window-x="-6"
     inkscape:window-y="-6"
     inkscape:window-maximized="1"
     inkscape:current-layer="_レイヤー_1" />
  <!-- Generator: Adobe Illustrator 29.6.1, SVG Export Plug-In . SVG Version: 2.1.1 Build 9)  -->
  <defs
     id="defs1">
    <style
       id="style1">
      .st0 {
        fill: #953629;
      }

      .st1 {
        fill: #ffebb0;
      }

      .st2 {
        fill: #132543;
      }
    </style>
  </defs>
  <polygon
     class="st2"
     points="288.07,608.34 288.07,595.92 301.68,595.92 301.68,555.6 345.76,608.34 413.6,608.34 356.47,540 413.6,471.66 345.76,471.66 301.68,524.4 301.68,471.66 294.63,471.66 294.63,484.75 287.6,484.75 287.6,471.66 268.22,471.66 268.22,608.34 "
     id="polygon1"
     transform="matrix(7.2395464,0,0,7.2395464,-1924.6199,-3369.6111)" />
  <g
     id="g8"
     transform="matrix(7.2395464,0,0,7.2395464,-1924.6199,-3369.6111)">
    <path
       class="st1"
       d="m 281.1,526.35 h 14.61 V 491.83 H 281.1 v -14.54 h -7.13 v 21.47 h 14.12 v 12.99 h -0.03 c -0.34,6.3 -5.54,11.3 -11.92,11.3 -0.74,0 -1.46,-0.08 -2.17,-0.21 v 38.32 h 14.12 v 19.94 h -14.12 v 21.35 h 7.13 v -13.74 h 14.61 V 558.2 l -14.61,-9.82 v -22.05 z"
       id="path1" />
    <path
       class="st1"
       d="m 302.75,532.63 h -15.36 v 14.42 l 7.66,4.98 v -11.27 h 2.15 c 3.07,0 5.55,-2.49 5.55,-5.55 z"
       id="path2" />
    <path
       class="st1"
       d="m 335.3,572.31 c -2.45,-2.97 -6.86,-3.41 -9.83,-0.96 l -1.55,1.27 0.91,1.11 -4.78,3.93 5.42,6.6 4.78,-3.93 2.54,3.08 1.55,-1.27 c 2.97,-2.45 3.41,-6.86 0.96,-9.83 z"
       id="path3" />
    <path
       class="st1"
       d="m 317.52,540.19 c -2.41,1.98 -2.76,5.54 -0.78,7.96 l 1.29,1.56 c 3.59,4.37 9.93,5.18 14.49,2 l -11.7,-14.23 z"
       id="path4" />
    <path
       class="st1"
       d="m 365.06,591.29 -0.45,0.37 c -4.74,3.9 -11.81,3.54 -15.89,-1.05 -4.28,-4.83 -3.67,-12.23 1.27,-16.29 l 0.66,-0.54 -15.37,-18.69 c -6.43,4.7 -15.51,3.62 -20.63,-2.61 l -1.03,-1.25 c -3.65,-4.44 -3.01,-11 1.43,-14.65 l 2.91,-2.39 -4.74,-4.89 11.79,-13 10.19,8.12 9.3,-11.19 c -0.23,-0.24 -0.45,-0.49 -0.66,-0.75 -5.55,-6.75 -4.57,-16.76 2.18,-22.32 5.43,-4.46 12.95,-4.7 18.58,-1.12 l 7.91,-9.52 -24.62,-0.38 -21.12,24.85 11.21,9.59 -4.27,4.99 -11.19,-9.58 -16.67,19.62 1.48,1.8 c 2.84,3.45 2.34,8.55 -1.11,11.39 l -3.98,3.27 c 0.25,1.07 0.74,2.09 1.48,3 l 17.42,21.19 1.33,-1.1 c 4.74,-3.9 11.81,-3.54 15.89,1.05 4.28,4.83 3.67,12.23 -1.27,16.29 l -1.55,1.27 13.21,16.07 26.39,0.73 -10.1,-12.29 z"
       id="path5" />
    <path
       class="st1"
       d="m 359.29,575.55 -4.28,3.52 -1.59,-1.93 -0.66,0.54 c -2.97,2.45 -3.41,6.86 -0.96,9.83 2.45,2.97 6.86,3.41 9.83,0.96 l 0.66,-0.54 -3.36,-4.09 4.28,-3.52 z"
       id="path6" />
    <path
       class="st1"
       d="m 349.44,494.16 c -4.45,3.77 -5.13,10.33 -1.65,14.93 l 5.17,-6.19 4.89,4.07 4.49,-5.4 -4.88,-4.06 3.98,-4.77 c -3.8,-1.92 -8.54,-1.51 -12,1.42 z"
       id="path7" />
    <path
       class="st1"
       d="m 283.03,507.78 v -3.03 h -14.82 v 12.84 h 5 c 5.42,0 9.81,-4.39 9.81,-9.81 z"
       id="path8" />
  </g>
  <g
     id="g16"
     transform="matrix(7.2395464,0,0,7.2395464,-1924.6199,-3369.6111)">
    <rect
       class="st0"
       x="295.79999"
       y="602.46002"
       width="5.8800001"
       height="5.8800001"
       id="rect13" />
    <rect
       class="st0"
       x="268.22"
       y="504.75"
       width="5.8800001"
       height="5.8800001"
       id="rect14" />
    <rect
       class="st0"
       x="319.69"
       y="541.35999"
       width="5.8800001"
       height="5.8800001"
       transform="rotate(-39.38,322.66939,544.33698)"
       id="rect15" />
    <rect
       class="st0"
       x="322.26001"
       y="524.77002"
       width="5.8800001"
       height="5.8800001"
       transform="rotate(-48.87,325.19327,527.70965)"
       id="rect16" />
  </g>
</svg>
